<svg width="237" height="197" viewBox="0 0 237 197" fill="none" xmlns="http://www.w3.org/2000/svg">
<g opacity="0.87" clip-path="url(#clip0_26_10)">
<path fill-rule="evenodd" clip-rule="evenodd" d="M210.135 7.45431C210.135 6.92188 210.933 7.18809 211.199 6.92188C211.199 7.45431 210.667 7.18809 210.135 7.45431Z" fill="#6A5048"/>
<path fill-rule="evenodd" clip-rule="evenodd" d="M226.094 16.2394C225.828 15.9732 226.36 16.2394 226.094 16.2394V16.2394Z" fill="#6A5048"/>
<path fill-rule="evenodd" clip-rule="evenodd" d="M137.785 40.9976C133.795 44.7246 130.071 48.4516 125.549 51.6462C128.741 47.3867 133.529 42.8611 137.785 40.9976Z" fill="#6A5048"/>
<path fill-rule="evenodd" clip-rule="evenodd" d="M109.589 44.4582C108.525 44.9906 108.791 46.5879 107.195 46.5879C107.195 44.9906 107.993 44.1919 109.589 44.4582Z" fill="#6A5048"/>
<path fill-rule="evenodd" clip-rule="evenodd" d="M156.936 42.3286C155.606 45.7894 151.616 46.8543 148.956 48.984C151.084 46.5881 153.212 43.6597 156.936 42.3286Z" fill="#6A5048"/>
<path fill-rule="evenodd" clip-rule="evenodd" d="M151.084 43.127C149.222 47.6526 142.572 51.1134 138.583 54.8405C140.444 50.581 147.36 47.1202 151.084 43.127Z" fill="#6A5048"/>
<path fill-rule="evenodd" clip-rule="evenodd" d="M166.778 46.5879C166.512 46.5879 167.044 46.8541 166.778 46.5879V46.5879Z" fill="#6A5048"/>
<path fill-rule="evenodd" clip-rule="evenodd" d="M142.041 55.373C141.775 55.373 142.307 55.6393 142.041 55.373V55.373Z" fill="#6A5048"/>
<path fill-rule="evenodd" clip-rule="evenodd" d="M55.0605 89.4488C59.5824 85.1893 64.6363 79.0664 69.9562 76.6704C66.2323 81.4623 60.1144 84.3907 56.6565 89.715C55.8585 89.9812 55.5925 89.4488 55.0605 89.4488Z" fill="#6A5048"/>
<path fill-rule="evenodd" clip-rule="evenodd" d="M105.333 78.5341C105.333 78.0017 106.131 78.0017 106.131 78.5341C106.131 79.0665 105.865 78.2679 105.333 78.5341Z" fill="#6A5048"/>
<path fill-rule="evenodd" clip-rule="evenodd" d="M92.2999 81.9946C93.8958 82.2608 92.8318 84.6568 91.2359 84.3906C91.7679 85.7217 92.2998 84.3906 93.3638 85.4554C92.5658 85.9879 91.5019 86.2541 90.1719 86.5203C89.6399 83.8581 92.2999 83.8581 92.2999 81.9946Z" fill="#6A5048"/>
<path fill-rule="evenodd" clip-rule="evenodd" d="M226.36 78.0016C226.36 77.7354 226.626 78.0016 226.36 78.0016V78.0016Z" fill="#6A5048"/>
<path fill-rule="evenodd" clip-rule="evenodd" d="M133.263 85.7217C134.061 85.7217 134.327 86.2541 134.061 87.319C130.869 87.8514 128.475 93.9744 124.751 93.7082C127.145 90.5136 130.603 88.6501 133.263 85.7217Z" fill="#6A5048"/>
<path fill-rule="evenodd" clip-rule="evenodd" d="M141.243 86.2544C139.115 90.7801 134.327 92.6436 130.071 95.3057C132.731 91.3125 137.519 89.1828 141.243 86.2544Z" fill="#6A5048"/>
<path fill-rule="evenodd" clip-rule="evenodd" d="M150.02 86.2544C146.03 89.7152 140.976 94.2409 136.455 95.8382C139.913 91.8449 145.498 87.5855 150.02 86.2544Z" fill="#6A5048"/>
<path fill-rule="evenodd" clip-rule="evenodd" d="M146.296 86.7868C146.296 86.5206 146.828 87.053 146.296 86.7868V86.7868Z" fill="#6A5048"/>
<path fill-rule="evenodd" clip-rule="evenodd" d="M127.411 88.3838C126.613 89.7148 125.017 91.8446 123.155 91.0459C123.687 89.7148 125.815 87.8513 127.411 88.3838Z" fill="#6A5048"/>
<path fill-rule="evenodd" clip-rule="evenodd" d="M122.623 89.1826C122.357 89.715 122.091 89.9813 121.559 89.9813C121.559 89.4488 122.091 89.1826 122.623 89.1826Z" fill="#6A5048"/>
<path fill-rule="evenodd" clip-rule="evenodd" d="M74.2121 93.708C70.4882 98.2337 67.2963 100.896 62.7744 104.357C65.7003 99.831 69.9562 96.6364 74.2121 93.708Z" fill="#6A5048"/>
<path fill-rule="evenodd" clip-rule="evenodd" d="M75.0102 109.149C76.6061 111.545 72.0842 114.207 71.5522 116.869C70.2223 113.408 75.0102 112.61 75.0102 109.149Z" fill="#6A5048"/>
<path fill-rule="evenodd" clip-rule="evenodd" d="M152.68 139.497C152.68 138.965 153.478 139.231 153.744 138.965C153.744 139.497 153.212 139.231 152.68 139.497Z" fill="#6A5048"/>
<path fill-rule="evenodd" clip-rule="evenodd" d="M98.1515 146.685C97.8855 146.419 98.4175 146.951 98.1515 146.685V146.685Z" fill="#6A5048"/>
<path fill-rule="evenodd" clip-rule="evenodd" d="M86.7137 165.853C90.1716 162.126 96.8214 163.191 101.077 165.054C106.663 171.976 100.279 184.488 90.9696 180.229C85.6497 185.819 74.212 181.826 78.9999 173.307C72.35 173.307 69.1581 167.716 63.5723 168.781C64.6362 160.262 83.2558 157.334 86.7137 165.853ZM67.2962 166.918C71.0201 168.515 73.414 171.177 78.2019 171.443C78.4679 170.645 79.5319 170.645 79.7979 169.846C78.9999 170.112 76.8719 170.911 76.3399 170.112C76.3399 167.983 79.2659 167.983 79.7979 166.385C77.4039 168.249 74.478 167.184 72.0841 169.047C72.0841 168.249 71.5521 168.249 71.2861 167.983C72.882 165.054 79.2659 167.45 81.9258 163.457C79.5319 162.658 77.9359 162.658 76.0739 163.723C75.808 163.191 75.542 163.191 76.0739 162.658C71.2861 162.658 68.3601 163.989 67.2962 166.918ZM80.0638 167.45C81.9258 167.184 82.4578 165.853 84.3197 165.587C83.5218 162.924 80.5958 166.385 80.0638 167.45ZM98.9494 170.379C97.6194 167.716 95.7575 165.32 92.2995 165.054C89.3736 166.918 86.1817 167.983 86.7137 171.71C86.9797 175.17 93.6295 181.027 96.5554 177.3C95.7574 175.703 93.8955 175.437 93.6295 173.573C93.8955 171.443 96.0234 171.177 96.5554 169.314C97.3534 169.58 98.4174 171.177 98.9494 170.379ZM97.3534 166.119C97.8854 166.385 97.3534 166.119 97.3534 166.119V166.119ZM99.2154 167.716C100.545 168.781 97.8854 166.385 99.2154 167.716V167.716ZM100.811 171.177C100.545 170.379 100.545 169.58 100.013 169.314C100.013 169.846 100.545 171.976 100.811 171.177ZM100.545 171.976C100.279 175.437 102.141 172.774 100.545 171.976V171.976ZM98.1514 173.307C98.4174 173.307 98.6834 173.307 98.9494 173.307C98.9494 173.041 98.9494 172.774 98.9494 172.508C98.6834 172.508 98.4174 172.508 98.1514 172.508C98.1514 172.774 98.1514 173.041 98.1514 173.307ZM84.8517 178.365C84.0537 177.3 85.1177 175.969 84.3197 175.703C84.0537 176.235 84.0537 177.3 83.2558 177.3C82.1918 176.502 82.9898 174.904 83.5218 174.106C78.2019 174.106 80.0638 181.293 84.8517 178.365ZM96.2894 174.106C96.5554 174.372 96.0234 174.106 96.2894 174.106V174.106ZM99.7473 176.768C100.013 177.034 99.4814 176.768 99.7473 176.768V176.768ZM85.1177 180.761C85.9157 179.962 87.7777 179.962 88.3096 178.897C86.7137 177.833 85.6497 179.696 85.1177 180.761ZM82.9898 180.761C85.1177 181.826 84.5857 179.43 82.9898 180.761V180.761Z" fill="#6A5048"/>
<path fill-rule="evenodd" clip-rule="evenodd" d="M117.835 167.982C119.165 166.917 119.963 165.586 121.293 164.255C127.145 160.795 132.997 158.399 140.976 158.931C147.36 159.197 154.01 161.859 159.862 160.262C158 163.989 153.744 165.054 151.616 168.781C150.02 171.177 150.02 174.638 147.626 176.501C149.488 178.631 151.882 178.897 154.276 181.027C156.936 183.423 157.734 186.884 160.66 188.215C162.256 189.013 164.384 187.682 165.448 189.546C155.074 194.87 138.05 200.195 127.411 192.74C122.889 188.747 119.165 181.826 111.451 182.89C108.525 179.696 105.067 177.3 106.397 171.709C107.461 167.45 113.313 165.054 118.101 165.853C117.835 166.385 118.633 167.184 117.835 167.982ZM146.562 162.126C146.828 162.392 146.562 161.859 146.562 162.126V162.126ZM121.293 173.307C124.751 172.242 126.347 169.313 128.475 166.917C129.805 165.32 132.199 163.989 131.401 162.658C128.475 166.651 124.219 169.313 121.293 173.307ZM126.879 171.443C131.667 169.846 133.795 165.586 137.253 162.658C130.869 162.658 129.539 169.313 126.879 171.443ZM134.327 170.645C138.316 169.047 140.178 165.32 142.572 162.658C137.784 163.457 136.721 167.716 134.327 170.645ZM118.633 174.372C121.559 170.645 126.613 167.184 128.475 163.989C124.219 166.385 120.495 170.911 118.633 174.372ZM131.667 170.911C134.061 169.313 138.05 165.054 137.784 163.457C135.923 166.385 132.731 167.716 131.667 170.911ZM137.519 171.177C140.178 169.047 143.902 165.586 144.7 162.924C142.04 165.32 138.316 168.515 137.519 171.177ZM146.03 163.723C145.232 167.184 139.912 168.781 140.178 171.976C142.838 169.313 145.764 166.651 148.158 163.723C147.36 163.723 146.562 163.723 146.03 163.723ZM150.818 165.054C151.084 165.32 150.552 164.788 150.818 165.054V165.054ZM148.424 165.054C148.158 165.054 147.626 165.054 147.626 165.586C147.892 165.586 148.424 165.586 148.424 165.054ZM147.36 166.385C147.626 166.651 147.094 166.385 147.36 166.385V166.385ZM150.552 165.853C150.286 165.853 149.754 165.853 149.754 166.385C150.02 166.119 150.552 166.119 150.552 165.853ZM141.508 172.242C143.636 171.709 146.03 167.716 145.764 167.716C144.168 169.047 142.838 170.645 141.508 172.242ZM108.259 174.904C109.323 175.969 111.451 175.703 113.047 175.969C113.313 173.839 114.643 172.774 115.175 171.177C113.845 170.112 112.781 169.313 110.653 170.112C110.919 171.443 110.387 172.242 109.589 172.508C108.259 171.976 110.653 171.177 109.589 170.911C109.057 171.976 107.993 172.774 108.259 174.904ZM119.697 169.846C119.963 170.112 119.431 169.58 119.697 169.846V169.846ZM115.707 170.378C116.239 171.976 115.973 168.781 115.707 170.378V170.378ZM146.296 169.58C142.838 172.242 146.562 169.313 146.296 169.58V169.58ZM127.677 173.839C129.805 173.04 132.731 173.307 134.327 172.242C131.933 172.508 128.475 171.976 127.677 173.839ZM134.859 172.508C135.125 172.774 134.593 172.508 134.859 172.508V172.508ZM123.687 174.904C124.485 174.372 126.347 174.638 126.347 173.573C125.283 173.573 123.687 173.573 123.687 174.904ZM144.434 174.105C145.498 175.969 147.36 173.04 146.828 172.508C146.296 173.307 144.966 173.307 144.434 174.105ZM117.569 179.43C129.007 178.631 134.061 190.078 144.168 191.676C148.69 192.474 153.212 191.676 158 189.812C151.882 176.235 132.199 169.047 117.569 179.43ZM114.111 179.163C116.771 178.099 118.899 176.768 121.027 175.17C117.835 175.969 115.707 177.3 114.111 179.163ZM120.495 181.293C119.697 181.559 117.835 181.027 117.835 181.826C118.633 182.89 120.229 182.624 120.495 181.293ZM121.027 184.488C122.623 184.488 122.889 183.157 123.687 182.358C122.357 181.559 120.229 183.423 121.027 184.488ZM122.889 186.085C124.219 187.682 125.815 184.754 126.613 183.423C126.081 183.423 125.815 183.157 125.283 183.157C125.017 184.488 123.421 184.754 122.889 186.085ZM125.283 188.215C126.879 188.747 128.741 186.884 129.007 185.286C127.145 184.222 125.815 186.884 125.283 188.215ZM126.879 190.078C128.209 190.078 130.337 188.215 131.135 186.617C129.007 187.416 128.475 189.013 126.879 190.078ZM129.007 191.676C130.869 192.208 132.731 190.078 133.529 188.747C131.135 187.416 130.071 190.345 129.007 191.676ZM131.933 193.007C134.061 192.474 135.391 191.409 136.455 190.078C135.391 190.345 135.657 189.28 134.859 189.28C134.327 191.143 132.199 191.409 131.933 193.007ZM134.859 193.805C137.253 194.338 137.518 191.409 139.114 192.474C139.38 194.072 136.987 193.273 137.253 194.604C141.508 194.87 146.296 195.403 150.02 193.539C146.562 192.74 142.838 194.338 140.178 193.539C139.912 192.474 142.04 193.539 141.242 192.208C138.848 190.345 135.923 191.676 134.859 193.805Z" fill="#6A5048"/>
<path fill-rule="evenodd" clip-rule="evenodd" d="M96.0235 184.488C100.013 183.423 104.535 184.222 105.333 189.28C106.929 199.13 90.4376 199.396 89.9056 190.877C89.6397 187.416 90.9696 185.819 96.0235 184.488ZM93.6296 194.338C96.0235 194.604 98.1514 193.806 98.9494 191.676C97.6195 191.676 97.6195 192.741 96.2895 192.741C95.7575 190.079 97.6195 189.546 99.2154 188.481C95.7575 182.891 89.3737 189.812 93.6296 194.338ZM100.279 189.014C101.077 189.014 101.077 189.546 101.875 189.28C102.141 187.416 100.545 185.553 99.7474 186.618C100.811 187.416 100.545 188.215 100.279 189.014ZM103.205 190.877C103.471 191.143 102.939 190.877 103.205 190.877V190.877ZM102.673 192.208C101.875 193.539 104.003 191.143 102.673 192.208V192.208ZM102.141 193.539C102.407 193.806 101.875 193.273 102.141 193.539V193.539Z" fill="#6A5048"/>
<path fill-rule="evenodd" clip-rule="evenodd" d="M191.515 16.2393C190.717 15.9731 191.781 15.7069 191.781 16.2393C195.239 10.6488 199.495 3.99338 206.943 1.86365C209.869 1.065 213.859 -1.06473 218.38 0.532566C220.508 1.33121 221.572 3.72716 224.232 3.46094C229.552 9.85013 238.596 14.3758 236.468 26.6218C235.138 34.8745 221.838 43.9258 216.519 49.2501C223.966 52.1785 230.084 56.9704 234.34 63.3596C236.202 93.7082 219.71 113.408 203.485 129.914C209.603 126.453 213.859 121.129 218.38 116.07C211.465 127.251 200.027 134.439 187.791 140.829C184.599 146.685 178.481 151.477 170.502 154.406C167.31 155.47 162.522 155.47 158.266 155.737C139.38 157.334 112.781 157.866 97.0875 144.822C96.5556 145.088 97.0875 145.62 97.6195 145.62C97.0875 146.951 96.0236 145.354 96.2896 144.023C92.0337 141.361 86.9798 139.764 83.2559 136.835C81.6599 137.102 79.532 141.361 78.202 138.166C75.8081 140.296 75.0101 145.887 71.5522 147.75C61.1784 153.074 45.7508 158.931 31.3872 159.464C19.9495 159.996 8.77778 156.269 0 152.276C4.78788 149.081 10.6397 149.081 15.1616 146.685C24.2054 141.893 28.7273 132.31 37.2391 127.251C31.1212 126.187 27.1313 122.46 22.8754 119.265C23.9394 117.668 25.8013 118.466 27.6633 118.2C35.1111 116.869 44.1549 111.012 54.5286 112.343C58.5185 112.876 60.9125 115.538 63.8384 117.934C56.3906 106.22 48.4108 94.2407 46.0168 78.5339C42.5589 73.2096 42.8249 67.3528 43.8889 60.6974C42.2929 60.165 42.8249 63.3596 42.0269 62.2947C41.7609 61.4961 42.5589 59.6326 42.0269 60.6974C40.431 59.6326 43.8889 60.165 43.8889 59.3664C44.6869 53.2434 48.6768 51.9123 54.5286 49.2501C67.0303 43.6596 79 40.1988 95.7576 38.0691C124.219 34.342 157.734 36.2055 181.673 38.0691C185.663 31.9461 190.983 24.492 191.515 16.2393ZM209.071 1.86365C209.603 3.46094 209.337 0.26635 209.071 1.86365V1.86365ZM220.242 4.52581C220.508 4.79203 220.242 4.25959 220.242 4.52581V4.52581ZM216.253 5.05824C221.04 5.85689 210.933 4.25959 216.253 5.05824V5.05824ZM186.993 68.6839C186.727 68.6839 189.919 67.8853 187.791 67.8853C184.865 67.6191 180.609 68.9501 177.949 70.2812C177.949 67.6191 172.63 70.5474 171.566 68.9501C173.694 66.5542 181.141 70.015 183.003 65.4893C181.407 65.2231 180.343 66.8204 180.077 64.9569C184.333 64.6907 188.589 63.3596 191.781 61.2299C189.653 60.9637 189.653 62.5609 187.791 62.5609C186.727 60.4312 184.067 62.8272 182.471 62.0285C185.131 60.165 190.717 60.9636 192.579 58.3015C191.515 58.0353 188.855 59.3664 188.855 57.7691C193.643 57.7691 197.367 56.438 199.495 54.042C197.899 54.3082 197.633 55.6393 196.037 55.9055C195.505 55.1069 197.101 54.5745 196.037 54.3082C193.643 55.1069 190.717 55.3731 188.855 55.3731C193.377 52.9772 201.357 54.042 203.751 49.7826C200.559 50.0488 196.303 51.6461 193.909 51.3799C198.165 48.7177 206.145 49.2501 209.603 45.7893C205.347 46.0555 201.091 48.1853 197.633 47.1204C202.687 44.192 214.923 45.7893 216.519 40.9974C214.391 42.0623 211.997 41.5299 209.869 42.0623C208.273 42.3285 205.347 44.7245 204.283 42.3285C209.603 40.465 215.721 40.9974 219.71 38.3353C216.785 38.3353 210.933 40.465 208.539 39.4001C212.795 37.0042 221.306 38.6015 223.7 34.6082C220.508 35.4069 211.731 37.8028 209.337 35.6731C214.657 34.342 223.966 35.6731 226.626 31.6799C222.902 31.4136 216.253 34.342 213.061 33.2772C217.05 30.3488 228.488 32.7447 229.818 28.4853C225.828 29.8163 221.838 29.2839 218.114 31.1474C217.582 28.7515 214.125 30.615 212.263 31.4136C212.263 30.0826 212.529 29.2839 213.327 29.0177C221.306 28.7515 228.488 23.6934 228.222 17.038C227.956 13.0447 225.828 10.915 222.902 8.25284C223.434 8.25284 223.966 8.78527 223.966 8.25284C222.902 8.25284 222.37 7.45419 221.838 6.65554C215.455 7.7204 211.199 3.99338 206.145 5.32446C202.421 6.38932 200.559 10.915 198.963 15.1745C197.101 20.765 194.441 25.5569 193.111 31.1474C189.387 34.0758 188.855 39.6664 184.865 42.3285C178.481 54.8407 167.842 63.6258 159.064 74.0082C163.054 73.4758 169.704 73.2096 172.63 72.1447C171.034 71.8785 168.64 72.9434 168.108 71.6123C174.758 71.3461 182.737 70.8137 186.993 68.6839ZM220.774 6.12311C220.508 6.12311 219.976 6.12311 219.976 6.65554C220.242 6.38932 220.774 6.38932 220.774 6.12311ZM202.155 8.25284C201.091 9.3177 203.219 6.92176 202.155 8.25284V8.25284ZM188.589 33.2772C185.663 42.3285 177.684 48.7177 174.492 56.438C185.929 43.1272 195.239 26.0893 200.825 8.78527C194.707 14.9082 194.973 26.888 188.589 33.2772ZM230.084 16.7718C230.616 16.5055 232.212 17.038 231.946 16.2393C230.882 15.4407 229.818 11.9799 228.488 12.7785C229.552 13.5772 229.818 15.1745 230.084 16.7718ZM193.377 17.038C193.643 17.3042 193.377 16.7718 193.377 17.038V17.038ZM232.212 19.4339C231.68 22.3623 232.478 17.8366 232.212 19.4339V19.4339ZM229.552 21.5636C229.552 20.765 231.68 21.5636 231.414 20.2326C231.148 20.2326 230.882 19.9664 230.882 19.4339C230.084 19.4339 228.488 21.0312 229.552 21.5636ZM232.478 22.0961C233.01 23.6934 232.744 20.4988 232.478 22.0961V22.0961ZM227.424 24.7582C229.552 23.6934 231.68 25.2907 231.68 22.6285C230.084 22.0961 227.956 22.8947 227.424 24.7582ZM188.323 31.6799C188.855 29.8163 191.249 27.4204 190.717 26.0893C189.919 27.4204 187.525 29.8163 188.323 31.6799ZM221.04 29.0177C225.03 28.4853 229.286 28.2191 231.68 26.3555C231.148 26.3555 231.414 25.5569 231.68 25.2907C227.69 26.0893 223.434 26.888 221.04 29.0177ZM232.478 26.0893C232.744 26.3555 232.478 26.0893 232.478 26.0893V26.0893ZM234.606 26.888C235.138 28.4853 234.872 25.2907 234.606 26.888V26.888ZM234.34 27.9528C234.606 28.2191 234.074 27.9528 234.34 27.9528V27.9528ZM187.791 31.9461C187.525 31.9461 186.993 31.9461 186.993 32.4785C187.259 32.4785 187.791 32.4785 187.791 31.9461ZM229.02 33.0109C229.552 34.342 229.818 31.4136 229.02 33.0109V33.0109ZM96.2896 41.7961C95.7576 41.7961 95.2256 41.7961 95.2256 42.3285C95.7576 42.3285 96.2896 42.3285 96.2896 41.7961ZM98.6835 41.7961C98.1515 42.0623 96.5556 41.5299 96.8215 42.3285C97.3535 42.0623 98.9495 42.5947 98.6835 41.7961ZM100.013 41.7961C99.7475 41.7961 99.2155 41.7961 99.2155 42.3285C99.4815 42.0623 100.013 42.0623 100.013 41.7961ZM151.35 51.3799C148.956 54.042 146.03 56.438 142.572 58.3015C148.424 52.9772 154.542 47.6528 160.394 42.3285C159.596 44.4582 162.522 42.5947 161.99 44.192C159.862 44.9907 158.266 46.588 158 50.0488C161.99 48.1853 164.384 45.2569 167.576 42.861C160.926 42.861 152.68 40.9974 144.7 41.2636C140.976 46.0555 135.391 51.1136 130.603 54.042C134.593 49.2501 139.912 45.7893 143.902 41.5299C135.923 39.9326 127.677 40.7312 119.963 41.5299C117.303 43.6596 114.909 46.0555 112.249 48.1853C112.249 44.4582 116.505 44.4582 117.835 41.7961C102.939 43.6596 83.5219 44.7245 69.6902 48.9839C65.4343 50.315 53.9966 55.9055 54.2626 59.6326C54.5286 62.2947 59.3165 64.6907 62.5084 66.0218C68.8923 68.6839 74.2121 71.0799 81.3939 68.1515C82.1919 68.1515 80.862 67.0866 81.3939 66.288C89.3737 60.165 105.865 60.9636 111.717 67.6191C117.037 64.1582 126.081 66.288 129.007 70.8137C131.401 70.015 134.061 68.1515 137.253 69.2164C140.976 66.8204 143.902 64.1582 146.828 61.2299C140.444 60.6974 139.38 65.4893 134.859 67.3528C140.178 61.7623 147.892 56.7042 151.35 51.3799ZM146.296 39.6664C158.532 39.1339 170.768 42.8609 179.811 42.0623C171.3 41.2636 156.67 38.0691 146.296 39.6664ZM70.2222 46.3218C61.4444 48.7177 51.6027 51.9123 48.4108 58.3015C49.7407 65.7555 57.9865 68.1515 63.3064 70.015C61.7104 70.015 62.2424 68.1515 61.1785 67.3528C57.9865 64.4245 52.1347 63.892 52.4007 59.1001C52.4007 57.5028 54.2626 55.6393 55.8586 54.5745C63.3064 48.4515 80.862 44.192 93.0976 42.5947C85.3838 42.8609 77.404 44.4582 70.2222 46.3218ZM159.862 43.9258C160.394 45.2569 160.128 42.3285 159.862 43.9258V43.9258ZM165.182 50.5812C165.714 48.9839 169.97 47.9191 168.108 46.3218C170.768 46.3218 171.034 43.9258 173.96 43.9258C173.162 45.7893 171.566 46.8542 170.236 48.4515C173.428 48.1853 173.694 45.2569 176.354 44.4582C177.418 44.9907 175.822 45.7893 176.886 46.0555C177.152 44.9907 178.481 44.9907 178.481 43.6596C174.758 44.192 169.97 40.9974 167.842 43.9258C168.374 44.192 169.97 43.3934 169.97 44.192C161.99 47.3866 157.468 53.7758 151.084 58.8339C155.606 59.1001 156.67 57.7691 160.128 54.8407C159.064 54.8407 158.798 55.6393 158.532 54.5745C160.66 53.5096 164.118 53.5096 164.65 50.5812C163.586 50.315 162.256 51.9123 161.458 50.8474C162.522 50.315 164.118 50.315 165.182 50.5812ZM224.232 40.9974C224.498 41.2636 223.966 40.7312 224.232 40.9974V40.9974ZM175.556 46.588C175.822 46.8542 175.29 46.3218 175.556 46.588V46.588ZM143.902 60.4312C150.286 60.165 152.946 54.042 157.734 51.3799C156.67 50.315 157.202 48.1853 156.67 47.3866C153.212 52.4447 148.158 56.1718 143.902 60.4312ZM210.135 47.1204C212.263 47.1204 213.859 46.3218 214.391 44.9907C212.795 45.5231 209.869 44.9907 210.135 47.1204ZM46.0168 60.6974C47.0808 59.6326 47.0808 55.9055 47.3468 55.3731C46.2828 56.7042 46.2828 59.1001 46.0168 60.6974ZM167.044 51.9123C168.64 52.7109 171.3 50.0488 169.704 49.2501C169.172 50.5812 167.044 50.315 167.044 51.9123ZM163.32 59.1001C167.044 57.7691 172.098 52.9772 175.556 48.9839C171.034 51.6461 166.246 56.1718 163.32 59.1001ZM202.421 51.9123C202.953 52.7109 207.475 50.5812 209.603 50.315C210.135 50.0488 209.603 48.7177 210.401 48.7177C210.667 50.0488 212.529 47.9191 211.199 47.9191C208.273 48.9839 205.347 50.315 202.421 51.9123ZM165.714 52.7109C165.98 52.9772 165.714 52.4447 165.714 52.7109V52.7109ZM159.596 57.2366C162.256 56.7042 167.31 54.3082 166.246 52.9772C163.32 54.042 161.192 55.3731 159.596 57.2366ZM201.091 55.6393C203.751 55.1069 206.677 54.8407 207.741 52.4447C205.879 52.4447 202.687 53.7758 201.091 55.6393ZM200.027 54.042C200.293 54.3082 200.027 54.042 200.027 54.042V54.042ZM171.566 55.6393C171.3 55.6393 170.768 55.6393 170.768 56.1718C171.034 55.9055 171.566 55.9055 171.566 55.6393ZM170.502 56.7042C170.768 56.9704 170.236 56.7042 170.502 56.7042V56.7042ZM162.522 57.2366C160.394 58.5677 156.404 58.0353 155.606 60.4312C158.266 59.8988 161.192 59.3664 162.522 57.2366ZM173.96 56.7042C172.098 57.2366 173.428 58.5677 173.96 56.7042V56.7042ZM217.582 54.3082C217.316 54.3082 216.785 54.3082 216.785 54.8407C217.316 54.8407 217.582 54.8407 217.582 54.3082ZM167.044 60.6974C167.31 59.3664 171.034 58.0353 169.172 57.5028C169.172 58.8339 165.98 59.3664 167.044 60.6974ZM219.444 55.6393C217.316 54.5745 218.38 56.9704 219.444 55.6393V55.6393ZM226.094 63.6258C225.296 66.288 222.37 67.3528 220.508 69.2164C231.414 68.1515 230.35 57.2366 221.838 55.6393C223.168 58.0353 226.094 59.1001 226.094 63.6258ZM149.222 61.4961C151.084 61.2299 155.074 60.9636 154.01 59.3664C152.946 59.8988 149.754 60.165 148.158 61.2299C148.158 62.0285 148.69 62.0285 148.956 62.2947C147.094 62.2947 145.764 62.8272 144.7 64.4245C148.424 64.6907 150.02 63.3596 151.616 61.7623C150.552 62.0285 149.488 62.8272 149.222 61.4961ZM172.098 58.8339C171.034 59.8988 173.162 57.5028 172.098 58.8339V58.8339ZM192.845 60.165C196.569 58.8339 200.027 60.165 202.687 56.9704C198.431 57.2366 194.973 57.7691 192.845 60.165ZM49.7407 79.3326C48.6768 75.8718 48.1448 68.4177 46.5488 65.4893C47.3468 71.3461 47.8788 75.0731 49.7407 79.3326ZM93.8956 69.4826C93.8956 70.015 93.6296 70.015 93.6296 70.2812C93.8956 70.2812 94.1616 70.2812 94.4276 70.2812C95.4916 68.6839 94.9596 69.7488 93.8956 69.2164C94.1616 68.4177 95.4916 68.1515 96.5555 68.1515C97.0875 69.4826 96.8215 69.2164 96.2896 70.2812C100.545 69.4826 104.269 68.1515 109.323 68.1515C104.801 62.561 90.4377 61.7623 84.5859 67.0866C87.7778 67.6191 90.9697 70.2812 93.8956 69.4826ZM160.66 61.2299C162.256 60.165 163.586 60.9636 164.65 59.3664C163.054 59.6326 160.128 59.8988 160.66 61.2299ZM151.084 63.3596C153.478 62.8272 156.936 62.8272 157.734 60.6974C155.606 61.2299 152.946 60.9636 151.084 63.3596ZM158.798 63.0934C160.128 63.3596 162.522 62.2947 161.458 61.7623C161.192 62.8272 158.532 61.4961 158.798 63.0934ZM164.65 61.7623C163.586 63.0934 165.714 60.6974 164.65 61.7623V61.7623ZM50.8047 76.9366C53.1987 76.6704 51.8687 73.4758 54.2626 72.4109C55.5926 72.1447 56.6566 71.8785 56.6566 70.8137C53.9966 70.2812 52.1347 68.9501 49.7407 67.8853C48.6768 71.0799 50.5387 73.2096 50.8047 76.9366ZM197.367 60.165C196.569 61.2299 195.239 61.7623 193.377 62.0285C191.515 63.892 195.239 61.4961 196.835 61.7623C196.569 60.4312 199.495 61.2299 198.697 60.165C198.165 60.9637 198.431 60.165 197.367 60.165ZM62.2424 67.8853C63.3064 69.4826 62.7744 66.5542 62.2424 67.8853V67.8853ZM158.266 62.5609C158 62.5609 157.468 62.561 157.468 63.0934C158 62.8272 158.266 63.0934 158.266 62.5609ZM156.67 63.3596C156.936 63.6258 156.67 63.3596 156.67 63.3596V63.3596ZM215.455 60.165C213.061 59.8988 214.657 61.2299 215.455 60.165V60.165ZM64.3704 68.6839C67.2963 70.2812 63.5724 68.1515 64.3704 68.6839V68.6839ZM156.138 65.4893C156.67 64.1582 154.01 64.4245 154.01 65.2231C155.074 64.9569 155.074 66.0218 156.138 65.4893ZM219.976 62.2947C220.242 62.5609 219.976 62.0285 219.976 62.2947V62.2947ZM188.855 66.288C191.515 65.7555 194.707 65.7555 195.505 63.6258C192.579 64.1582 190.185 65.4893 188.855 66.288ZM70.4882 71.3461C68.8923 71.3461 66.4983 70.2812 65.7003 70.8137C67.0303 71.0799 69.1582 72.6772 70.4882 71.3461ZM77.936 70.8137C76.872 71.8785 79 69.4826 77.936 70.8137V70.8137ZM116.505 69.4826C116.239 68.4177 117.835 68.9501 118.101 68.1515C116.771 67.8853 115.707 69.2164 116.505 69.4826ZM163.586 66.0218C160.926 65.7555 162.522 67.6191 163.586 66.0218V66.0218ZM57.9865 71.6123C56.6566 75.0731 50.5387 76.138 52.1347 81.1961C55.3266 78.8001 58.5185 76.4042 60.3805 72.6772C59.3165 72.9434 58.7845 72.1447 57.9865 71.6123ZM97.8855 72.9434C101.343 72.1447 107.993 71.3461 111.185 68.9501C106.131 69.4826 101.609 70.8137 97.8855 72.9434ZM82.7239 71.6123C83.5219 72.9434 81.3939 69.7488 82.7239 71.6123V71.6123ZM142.04 72.1447C143.636 71.6123 145.498 69.4826 147.094 70.2812C146.03 71.8785 143.37 71.8785 143.37 74.5407C147.892 75.6055 152.946 75.0731 155.074 71.8785C152.68 71.8785 153.478 68.9501 154.542 68.4177C150.818 66.8204 141.508 66.288 142.04 72.1447ZM185.131 66.0218C185.397 66.288 185.131 65.7555 185.131 66.0218V66.0218ZM73.9461 72.4109C72.8821 72.9434 71.5522 71.3461 71.0202 72.1447C71.8182 72.4109 73.4141 73.742 73.9461 72.4109ZM118.633 70.5474C118.633 74.0082 122.889 72.9434 123.155 75.8718C121.293 77.2028 119.697 74.5407 118.367 75.3393C119.697 76.6704 122.889 78.0015 125.549 76.6704C124.485 76.9366 124.751 75.8718 124.219 75.6055C125.017 74.8069 126.879 75.0731 127.677 74.5407C126.613 70.8137 122.889 67.3528 118.633 70.5474ZM84.8519 72.4109C86.9798 71.6123 88.3098 73.742 89.6397 72.6772C87.7778 72.4109 85.9158 70.5474 84.8519 72.4109ZM95.2256 72.1447C97.0875 72.1447 98.4175 71.6123 99.4815 70.8137C97.0875 71.3461 95.4916 70.2812 95.2256 72.1447ZM139.912 74.0082C139.38 71.6123 142.04 70.015 141.242 68.6839C140.178 70.015 136.721 72.6772 139.912 74.0082ZM161.458 68.1515C160.394 69.2164 162.522 66.8204 161.458 68.1515V68.1515ZM115.175 73.4758C116.239 73.4758 116.239 72.6772 117.037 72.6772C116.771 71.8785 116.771 70.8137 116.239 70.2812C115.441 71.0799 114.909 72.1447 115.175 73.4758ZM117.835 79.0664C116.771 78.8001 114.909 79.5988 114.643 78.8001C115.175 78.8001 116.239 78.8001 116.239 78.2677C102.673 77.7353 86.9798 73.742 75.0101 73.2096C82.4579 75.8718 91.2357 76.9366 99.4815 78.2677C100.279 77.7353 99.7475 78.2677 100.279 77.4691C104.269 80.6637 113.579 79.0664 117.835 79.0664ZM191.515 67.3528C192.313 68.6839 192.579 65.7555 191.515 67.3528V67.3528ZM207.475 66.5542C204.549 67.8853 208.805 65.7555 207.475 66.5542V66.5542ZM61.7104 74.0082C59.8485 78.0015 51.3367 80.6637 53.4646 85.1893C56.6566 81.4623 60.3805 78.0015 64.3704 75.0731C63.8384 74.5407 63.0404 74.0082 61.7104 74.0082ZM91.2357 72.6772C91.5017 72.9434 90.9697 72.6772 91.2357 72.6772V72.6772ZM204.017 67.0866C203.751 67.0866 203.219 67.0866 203.219 67.6191C203.485 67.3528 204.017 67.3528 204.017 67.0866ZM94.4276 72.9434C94.1616 72.9434 93.6296 72.9434 93.6296 73.4758C93.8956 73.4758 94.4276 73.4758 94.4276 72.9434ZM103.205 73.742C104.801 73.4758 106.397 73.2096 107.195 72.4109C105.599 72.6772 104.003 72.9434 103.205 73.742ZM154.276 70.2812C154.542 70.5474 154.276 70.2812 154.276 70.2812V70.2812ZM190.983 68.4177C189.919 69.7488 192.047 67.3528 190.983 68.4177V68.4177ZM154.542 82.7934C155.074 82.7934 155.606 82.5272 154.808 82.2609C133.795 84.1245 111.717 83.592 90.1717 80.3974C88.0438 82.7934 85.9158 85.4556 84.0539 86.2542C84.3199 83.0596 87.7778 82.7934 88.8418 80.3974C82.9899 80.6637 80.862 87.8515 76.0741 86.5204C79.798 84.6569 82.7239 81.9947 86.1818 79.5988C79 79.0664 77.138 85.988 71.5522 87.8515C72.8822 83.8582 78.202 83.8582 78.734 79.0664C70.7542 82.7934 67.8283 90.7799 60.9125 95.0393C66.2323 88.1177 71.2862 83.3258 77.67 77.4691C73.6801 77.4691 70.2222 73.742 65.9663 74.8069C63.5724 75.3393 54.5286 84.3907 54.2626 86.5204C53.9966 88.9164 56.6566 90.2474 56.6566 92.3772C63.8384 88.6501 67.8283 81.9947 74.7441 78.0015C70.7542 82.5272 64.1044 89.1826 57.1886 93.1758C58.2525 95.5718 59.0505 98.2339 60.6465 100.097C64.1044 96.3704 67.8283 93.1758 71.5522 89.9812C68.6263 95.838 55.3266 100.896 64.3704 107.019C66.7643 104.623 69.4242 100.63 72.0842 99.8312C70.2222 103.292 66.4983 105.156 64.9024 108.883C65.4343 109.681 65.9663 110.48 66.4983 111.279C69.1582 108.35 72.8822 104.623 75.5421 103.292C72.8822 106.22 69.1582 109.947 66.7643 111.811C69.6902 117.668 74.7441 121.129 80.064 123.791C100.013 141.361 152.148 148.815 179.279 131.511C172.098 134.439 163.32 138.166 154.01 138.433C166.778 135.238 180.609 132.842 188.057 124.323C178.747 127.518 168.374 131.777 158.266 133.108C169.97 129.115 184.067 127.784 189.653 118.466C180.609 122.46 169.172 126.719 159.33 127.518C171.566 123.791 185.929 121.395 194.441 113.408C192.579 112.876 191.515 115.006 190.451 113.941C192.579 112.077 198.431 111.545 198.165 108.883C195.771 110.48 193.111 111.811 189.919 112.876C187.791 115.006 186.727 118.2 183.535 119.265C185.131 117.934 186.461 116.603 187.259 114.739C184.333 115.538 181.141 117.401 177.949 118.733C174.758 120.064 171.3 121.927 168.906 121.661C178.747 116.869 190.983 114.207 195.505 104.889C189.653 105.156 188.855 109.947 185.131 110.48C185.131 109.947 187.259 109.149 186.195 108.883C181.939 111.545 176.354 114.739 172.098 116.07C177.417 111.811 185.397 109.681 190.717 105.422C193.377 103.292 194.175 99.8312 197.101 99.0326C196.569 100.63 194.973 101.429 194.175 102.76C196.037 101.961 197.899 101.429 198.697 99.8312C198.165 99.8312 197.633 99.8312 197.367 99.565C200.825 100.097 202.687 96.9028 204.283 94.5069C194.175 97.4353 186.461 107.019 176.088 109.415C184.067 106.22 189.121 100.63 192.845 94.5069C186.993 98.7664 180.343 104.091 173.96 106.753C181.141 101.429 191.515 96.9028 193.643 88.1177C190.717 91.3123 186.195 93.1758 184.067 96.9028C183.535 96.9028 183.801 95.838 182.737 96.1042C180.875 98.2339 177.684 99.565 175.024 101.162C172.364 102.76 169.704 105.688 167.31 105.156C176.62 99.565 187.525 93.1758 191.781 83.8582C189.919 84.9231 188.855 86.7866 186.461 87.3191C184.067 89.715 181.141 95.838 179.013 95.3055C180.077 94.2407 182.205 91.8447 181.939 90.7799C175.822 95.0393 168.906 101.162 162.256 103.824C169.172 99.565 176.62 93.7082 179.811 87.3191C177.949 89.715 173.96 90.7799 172.098 92.9096C171.566 93.7083 172.098 94.5069 171.034 95.0393C171.034 95.0393 170.502 93.7082 171.034 93.9745C169.438 93.7082 165.98 96.9028 164.118 98.2339C161.724 99.8312 159.33 102.227 157.202 102.227C159.862 99.565 163.852 98.2339 166.512 95.3055C164.384 93.9745 167.842 91.5785 168.108 89.9812C165.98 91.0461 163.852 92.111 162.788 94.2407C159.862 93.442 157.734 97.7015 155.34 96.9028C160.128 93.9745 165.714 89.9812 166.778 84.6569C163.852 86.7866 161.192 89.1826 158.798 91.8447C158.266 91.8447 158.532 90.7799 158 90.7799C155.606 92.6434 151.882 95.3055 148.956 95.5718C153.212 92.9096 156.404 89.715 158.798 85.4555C156.67 85.988 156.138 88.1177 155.074 89.715C154.01 89.1826 155.606 88.3839 154.542 88.1177C152.148 90.2474 149.488 92.3772 146.03 93.7083C144.966 94.2407 143.902 96.9028 142.838 95.0393C148.424 90.7799 154.808 87.0528 160.128 82.5272C161.724 85.4555 158 86.5204 157.202 89.4488C161.192 88.3839 162.256 84.9231 164.916 82.7934C165.714 83.0596 165.714 83.3258 165.448 83.8582C167.044 83.8582 166.512 82.2609 168.108 82.5272C168.64 83.8582 165.98 84.1245 167.31 84.9231C168.374 84.1245 168.64 82.5272 169.438 81.7285C171.566 84.3907 165.182 87.3191 165.98 89.9812C169.704 87.3191 172.63 84.3907 175.556 81.1961C176.088 82.2609 174.492 83.592 175.29 84.1245C176.088 82.5272 178.747 82.261 179.545 80.3974C170.236 81.7285 159.862 82.5272 154.542 82.7934ZM132.997 72.6772C131.135 73.2096 131.135 71.3461 129.007 72.1447C129.007 74.2745 131.667 73.2096 132.997 72.6772ZM158 71.3461C158.798 71.3461 159.064 71.0799 159.064 70.5474C158.532 70.5474 158.266 70.8137 158 71.3461ZM97.6195 74.0082C97.0875 74.0082 96.5555 74.0082 96.5555 74.5407C96.8215 74.5407 97.6195 74.5407 97.6195 74.0082ZM217.582 68.6839C217.848 68.9501 217.316 68.6839 217.582 68.6839V68.6839ZM108.525 75.6055C110.121 76.138 112.249 75.8718 113.313 76.6704C113.047 75.0731 113.313 75.3393 112.781 74.2745C111.451 74.5407 109.855 74.2745 108.525 75.6055ZM186.993 70.8137C187.259 71.0799 186.727 70.5474 186.993 70.8137V70.8137ZM189.387 70.2812C188.855 70.2812 188.323 70.2812 188.323 70.8137C188.589 70.5474 189.387 70.5474 189.387 70.2812ZM215.987 69.2164C210.135 71.0799 217.582 68.6839 215.987 69.2164V69.2164ZM190.983 70.8137C191.249 71.0799 190.717 70.8137 190.983 70.8137V70.8137ZM219.71 69.4826C219.976 69.7488 219.444 69.2164 219.71 69.4826V69.4826ZM173.96 72.6772C174.226 72.9434 173.694 72.4109 173.96 72.6772V72.6772ZM195.771 71.3461C194.707 72.6772 197.101 70.2812 195.771 71.3461V71.3461ZM217.582 70.2812C217.848 70.5474 217.582 70.2812 217.582 70.2812V70.2812ZM166.246 75.3393C173.162 74.5407 183.535 74.2745 188.057 71.8785C180.343 73.2096 172.63 72.6772 166.246 75.3393ZM223.434 72.1447C225.03 73.2096 227.158 71.0799 226.892 70.2812C227.158 70.2812 227.424 70.2812 227.158 69.7488C225.828 70.5474 224.232 70.8137 223.434 72.1447ZM214.923 71.3461C215.189 71.6123 214.657 71.0799 214.923 71.3461V71.3461ZM216.253 71.3461C216.519 71.6123 215.987 71.0799 216.253 71.3461V71.3461ZM49.7407 80.1312C49.4748 82.5272 49.7407 78.5339 49.7407 80.1312V80.1312ZM84.3199 78.0015C84.0539 78.0015 83.5219 78.0015 83.5219 78.5339C83.7879 78.2677 84.3199 78.2677 84.3199 78.0015ZM116.505 76.6704C116.771 76.9366 116.239 76.6704 116.505 76.6704V76.6704ZM232.478 70.8137C232.744 71.0799 232.212 70.5474 232.478 70.8137V70.8137ZM85.9158 78.2677C85.6498 78.2677 85.1178 78.2677 85.1178 78.8001C85.3838 78.5339 85.9158 78.5339 85.9158 78.2677ZM86.1818 78.5339C86.7138 80.1312 86.7138 76.9366 86.1818 78.5339V78.5339ZM206.411 73.2096C208.539 72.9434 210.933 72.9434 212.263 71.6123C209.869 72.9434 207.209 71.3461 206.411 73.2096ZM81.1279 80.3974C81.3939 79.0664 80.33 79.0664 79.798 78.8001C79.798 80.1312 80.064 80.6637 81.1279 80.3974ZM88.3098 78.5339C88.0438 78.5339 87.5118 78.5339 87.5118 79.0664C87.7778 78.8001 88.3098 78.8001 88.3098 78.5339ZM126.879 76.9366C127.411 78.2677 127.677 75.3393 126.879 76.9366V76.9366ZM130.071 77.7353C134.061 76.9366 137.785 78.5339 141.242 77.2028C140.444 76.9366 140.444 76.6704 140.71 76.138C136.987 77.4691 132.731 75.8718 130.071 77.7353ZM158.266 76.6704C159.33 75.3393 164.118 77.2028 164.118 74.8069C161.99 74.8069 156.936 74.5407 158.266 76.6704ZM81.6599 79.5988C81.9259 79.865 81.3939 79.5988 81.6599 79.5988V79.5988ZM146.562 76.4042C147.094 76.6704 146.562 76.138 146.562 76.4042V76.4042ZM184.333 74.5407C184.599 74.8069 184.333 74.2745 184.333 74.5407V74.5407ZM205.879 72.9434C205.613 72.9434 205.081 72.9434 205.081 73.4758C205.347 73.2096 205.879 73.2096 205.879 72.9434ZM50.2727 81.7285C50.8047 83.3258 50.5387 80.1312 50.2727 81.7285V81.7285ZM147.626 76.6704C147.892 76.9366 147.36 76.6704 147.626 76.6704V76.6704ZM181.673 74.5407C181.407 74.5407 180.875 74.5407 180.875 75.0731C181.141 74.8069 181.673 75.0731 181.673 74.5407ZM183.269 74.5407C181.141 74.2745 182.737 75.6055 183.269 74.5407V74.5407ZM201.091 75.0731C201.889 74.0082 204.283 74.8069 204.549 73.2096C204.017 74.0082 200.027 74.0082 201.091 75.0731ZM214.923 73.2096C215.189 73.4758 214.923 73.2096 214.923 73.2096V73.2096ZM226.094 73.4758C226.626 75.0731 226.626 71.8785 226.094 73.4758V73.4758ZM159.862 77.2028C160.128 77.4691 159.596 77.2028 159.862 77.2028V77.2028ZM161.99 77.4691C163.586 76.9366 164.65 77.7353 164.65 76.4042C163.852 76.9366 161.458 76.138 161.99 77.4691ZM121.825 79.5988C146.03 80.9299 176.354 81.4623 200.027 74.8069C177.949 79.3326 150.818 79.5988 121.825 79.5988ZM222.902 76.4042C224.232 77.2028 224.498 74.5407 225.03 73.4758C223.434 74.5407 223.7 75.6055 222.902 76.4042ZM101.609 80.1312C101.343 80.1312 100.811 80.1312 100.811 80.6637C101.077 80.6637 101.609 80.6637 101.609 80.1312ZM121.293 79.3326C121.027 79.3326 120.495 79.3326 120.495 79.865C120.761 79.5988 121.293 79.5988 121.293 79.3326ZM227.956 74.2745C228.222 74.5407 227.69 74.0082 227.956 74.2745V74.2745ZM232.212 74.0082C232.478 74.2745 231.946 73.742 232.212 74.0082V74.0082ZM214.391 97.7015C219.976 96.9028 227.956 87.8515 227.424 79.0664C227.424 79.3326 227.158 79.5988 227.158 79.0664C227.424 78.0015 227.158 75.8718 228.222 77.4691C228.222 76.138 227.956 75.3393 227.69 74.2745C226.36 74.5407 226.36 76.138 225.03 76.4042C224.764 77.7353 227.424 78.0015 225.562 78.8001C225.562 78.0015 225.296 77.4691 224.764 77.2028C223.966 80.3974 219.444 82.2609 219.71 84.9231C220.242 83.0596 222.104 85.1893 223.434 85.1893C224.498 83.592 225.828 82.2609 227.158 80.9299C226.626 81.7285 227.158 81.4623 227.158 82.5272C222.104 87.3191 218.114 92.3772 214.391 97.7015ZM109.589 81.4623C109.855 81.7285 109.323 81.1961 109.589 81.4623V81.4623ZM114.643 81.1961C113.845 81.4623 112.249 80.9299 112.249 81.7285C113.047 81.4623 114.643 81.9947 114.643 81.1961ZM208.007 78.0015C209.603 77.7353 212.529 77.4691 213.859 76.138C211.731 76.6704 209.603 76.9366 208.007 78.0015ZM125.017 81.7285C122.889 81.1961 116.771 80.9299 115.973 81.7285C119.431 81.4623 121.825 82.261 125.017 81.7285ZM232.212 79.5988C231.946 78.2677 233.276 76.4042 231.946 75.6055C231.946 76.4042 231.414 79.865 232.212 79.5988ZM130.337 81.4623C129.007 81.7285 126.613 81.1961 126.081 81.9947C127.145 81.9947 129.539 82.5272 130.337 81.4623ZM207.209 78.0015C207.475 78.2677 207.209 78.0015 207.209 78.0015V78.0015ZM51.6027 86.2542C52.1347 87.8515 51.8687 84.6569 51.6027 86.2542V86.2542ZM200.559 79.5988C202.953 78.8001 204.283 79.865 205.613 78.2677C204.017 78.5339 201.357 78.2677 200.559 79.5988ZM193.909 79.865C196.303 79.5988 197.633 80.3974 198.697 78.8001C197.101 79.0664 193.643 79.3326 193.909 79.865ZM181.407 83.3258C180.077 84.9231 177.683 87.5853 177.417 89.1826C180.609 85.7218 186.461 83.0596 187.791 80.3974C186.461 81.1961 183.535 79.865 181.407 80.6637C181.141 82.2609 180.875 81.7285 181.407 83.3258ZM199.761 79.3326C199.495 79.3326 198.963 79.3326 198.963 79.865C199.229 79.5988 199.761 79.5988 199.761 79.3326ZM218.912 78.5339C218.646 79.5988 217.582 79.865 217.316 80.9299C218.912 80.9299 219.444 78.8001 220.774 79.865C221.04 79.0664 221.572 78.5339 221.838 77.7353C220.508 78.0015 220.508 78.8001 218.912 78.5339ZM52.1347 87.5853C52.4007 87.8515 51.8687 87.3191 52.1347 87.5853V87.5853ZM185.397 84.6569C187.259 84.1245 188.855 83.0596 190.451 81.9947C190.451 82.5272 190.451 83.592 190.983 83.592C192.579 82.7934 194.973 82.2609 195.505 80.6637C190.185 80.3974 187.525 81.7285 185.397 84.6569ZM200.559 80.3974C200.027 80.6637 198.431 80.1312 198.697 80.9299C199.229 80.6637 200.825 81.1961 200.559 80.3974ZM202.687 80.6637C202.953 80.9299 202.421 80.6637 202.687 80.6637V80.6637ZM208.805 83.592C211.731 81.9947 216.785 82.2609 216.519 79.5988C213.859 80.6637 209.071 81.4623 208.805 83.592ZM52.4007 88.6501C53.1987 90.2474 52.9327 87.0528 52.4007 88.6501V88.6501ZM179.545 82.5272C180.077 82.7934 179.545 82.5272 179.545 82.5272V82.5272ZM196.835 82.2609C196.835 81.7285 197.899 81.9947 197.899 81.4623C197.101 80.9299 195.771 81.9947 196.835 82.2609ZM207.475 80.9299C207.209 80.9299 206.677 80.9299 206.677 81.4623C206.943 81.1961 207.475 81.1961 207.475 80.9299ZM208.007 81.1961C208.273 81.4623 207.741 81.1961 208.007 81.1961V81.1961ZM167.576 95.5718C171.3 93.442 174.226 90.2474 176.62 87.0528C177.418 85.7218 179.545 84.1245 178.481 83.0596C175.29 86.2542 168.374 90.5137 167.576 95.5718ZM201.889 82.7934C202.687 82.7934 204.017 83.0596 203.485 81.9947C202.687 81.9947 202.155 82.2609 201.889 82.7934ZM231.414 80.9299C231.68 81.1961 231.148 80.6637 231.414 80.9299V80.9299ZM59.5825 103.026C56.6566 99.8312 55.8586 93.9745 52.9327 89.715C54.5286 94.5069 56.3906 101.429 59.5825 103.026ZM207.475 82.7934C207.741 83.0596 207.475 82.7934 207.475 82.7934V82.7934ZM196.835 83.8582C191.515 85.1893 201.623 82.5272 196.835 83.8582V83.8582ZM203.219 84.9231C205.347 84.9231 206.145 83.8582 207.209 82.7934C204.815 82.7934 204.017 83.8582 203.219 84.9231ZM215.189 83.592C215.987 83.592 216.253 83.3258 216.253 82.7934C215.721 82.7934 215.189 83.0596 215.189 83.592ZM198.697 85.988C200.825 85.988 202.155 85.4555 202.155 83.8582C200.559 84.3907 198.963 84.6569 198.697 85.988ZM205.879 89.1826C209.071 87.8515 213.593 85.988 213.593 83.3258C209.603 83.8582 205.879 86.5204 205.879 89.1826ZM188.855 85.4555C187.791 86.2542 190.983 84.1245 188.855 85.4555V85.4555ZM214.391 86.5204C215.189 86.2542 217.848 85.4555 217.848 83.592C216.519 84.1245 214.125 85.7218 214.391 86.5204ZM178.481 93.1758C181.141 90.5137 185.397 89.4488 186.727 85.4555C183.003 85.4555 180.077 91.0461 178.481 93.1758ZM190.717 89.715C193.111 88.6501 194.441 86.7866 196.569 85.4555C196.037 84.6569 194.707 86.2542 193.643 85.1893C193.377 87.0528 191.249 87.5853 190.717 89.715ZM200.027 90.5137C203.219 91.3123 206.411 87.0528 205.879 85.7218C204.017 87.5853 201.357 88.3839 200.027 90.5137ZM215.455 89.715C217.848 88.6501 220.242 87.3191 221.572 85.4555C218.646 85.988 216.519 87.0528 215.455 89.715ZM192.579 93.442C194.441 93.9745 198.431 89.715 199.761 87.0528C198.431 87.5853 196.569 86.5204 196.303 87.3191C196.569 89.4488 194.175 92.1109 192.579 93.442ZM201.357 87.8515C201.357 87.0528 202.687 87.5853 202.421 86.5204C202.155 86.5204 201.623 86.5204 201.357 86.5204C201.623 87.3191 200.825 87.8515 201.357 87.8515ZM168.906 89.9812C169.172 90.2474 168.64 89.715 168.906 89.9812V89.9812ZM210.667 88.6501C211.465 90.5136 208.273 90.7799 209.603 91.8447C210.401 91.3123 211.997 90.7799 212.795 91.3123C213.061 89.715 214.923 89.4488 214.923 87.5853C213.327 87.8515 212.529 88.6501 210.667 88.6501ZM189.653 90.5137C188.323 91.3123 191.515 89.1826 189.653 90.5137V90.5137ZM207.209 89.9812C207.475 90.2474 206.943 89.9812 207.209 89.9812V89.9812ZM203.751 92.6434C204.549 91.5785 206.145 91.3123 206.677 89.9812C205.081 89.9812 202.953 91.0461 203.751 92.6434ZM186.993 103.292C190.717 101.162 194.175 99.0326 197.367 96.3704C196.835 96.3704 196.037 96.3704 196.037 95.5718C200.027 95.838 200.825 93.7082 202.155 90.7799C194.441 91.3123 193.377 100.364 186.993 103.292ZM211.465 95.3055C214.391 93.7082 217.582 92.3772 217.848 90.2474C214.923 91.3123 212.529 92.6434 211.465 95.3055ZM204.549 93.442C206.411 93.442 207.209 92.3772 207.741 91.3123C206.145 91.5785 205.613 92.6434 204.549 93.442ZM205.081 96.6366C207.475 95.3055 209.869 94.2407 211.731 92.3772C208.805 93.1758 206.145 94.2407 205.081 96.6366ZM200.293 118.733C205.081 116.603 208.007 113.142 211.731 108.883C217.316 102.76 221.04 98.2339 223.7 91.5785C216.253 101.961 209.337 110.214 200.293 118.733ZM207.741 96.6366C209.071 97.1691 209.869 95.0393 209.337 95.0393C209.071 95.838 208.007 95.838 207.741 96.6366ZM207.741 100.896C210.667 100.097 212.529 98.5001 213.859 96.1042C210.667 96.3704 207.741 99.0326 207.741 100.896ZM217.848 97.4353C218.114 97.7015 217.582 97.1691 217.848 97.4353V97.4353ZM198.963 103.558C202.155 102.493 207.741 101.429 206.943 97.9677C204.283 99.565 200.825 100.097 198.963 103.558ZM209.071 104.623C210.401 104.091 211.465 101.695 212.529 103.292C210.933 105.954 206.411 106.22 204.815 108.883C211.465 107.551 213.327 102.227 217.05 98.2339C214.657 99.8312 210.135 102.493 209.071 104.623ZM206.145 101.961C205.879 103.292 204.549 103.558 204.283 104.889C205.879 104.091 209.337 102.76 208.805 101.429C208.273 101.961 206.677 102.76 206.145 101.961ZM195.771 104.091C197.101 104.357 198.431 102.76 197.633 102.493C197.633 103.292 196.037 103.026 195.771 104.091ZM62.5084 112.077C62.2424 111.012 61.7104 110.214 60.9125 109.681C61.1784 111.012 61.7104 111.545 62.5084 112.077ZM191.781 111.545C195.505 108.883 202.953 107.551 203.219 103.026C197.633 104.091 194.707 107.818 191.781 111.545ZM221.838 102.76C222.104 103.026 221.572 102.76 221.838 102.76V102.76ZM62.5084 112.876C62.7744 113.142 62.2424 112.876 62.5084 112.876V112.876ZM205.879 105.688C206.145 105.954 205.879 105.422 205.879 105.688V105.688ZM54.2626 114.473C54.5286 114.739 53.9966 114.473 54.2626 114.473V114.473ZM77.404 128.849C78.202 131.245 81.1279 133.374 82.7239 133.374C81.9259 133.108 81.6599 132.043 81.9259 130.979C77.138 128.583 72.8822 124.057 68.8923 120.064C67.2963 118.2 64.3704 113.674 63.3064 114.473C68.0943 118.999 70.7542 126.453 77.404 128.849ZM43.6229 115.006C38.303 115.006 31.9192 118.733 27.1313 120.33C30.0572 122.193 32.1852 125.122 36.9731 125.122C38.303 121.661 44.6869 119.265 47.6128 115.804C46.0168 116.869 45.2189 115.006 43.6229 115.006ZM56.6566 115.538C56.9226 114.739 55.0606 113.941 55.0606 114.739C55.5926 115.006 56.1246 115.538 56.6566 115.538ZM206.411 116.07C210.667 115.006 213.593 109.681 215.189 106.487C212.529 109.947 209.071 112.61 206.411 116.07ZM199.495 110.746C201.889 111.012 204.549 107.818 203.751 107.818C202.155 108.616 200.027 108.883 199.495 110.746ZM39.899 123.524C44.6869 121.927 47.0808 117.934 51.0707 115.272C47.3468 116.869 44.1549 121.395 39.899 123.524ZM45.4848 122.992C48.4108 120.862 51.6027 118.733 54.2626 116.603C51.0707 116.603 47.0808 121.129 45.4848 122.992ZM60.9125 118.2C60.6465 117.135 59.8485 116.337 58.5185 116.337C58.5185 117.668 59.8485 117.934 60.9125 118.2ZM55.5926 118.466C54.2626 119.265 57.4545 117.135 55.5926 118.466V118.466ZM198.165 116.337C201.357 115.272 206.411 112.343 205.879 110.48C202.687 112.077 199.761 113.408 198.165 116.337ZM196.303 114.473C196.835 112.876 199.495 113.142 200.027 111.811C198.697 112.077 195.771 113.408 196.303 114.473ZM56.1246 120.862C57.1886 120.862 57.4545 120.064 57.9865 119.531C57.1885 119.531 55.3266 121.661 56.1246 120.862ZM60.1145 121.129C60.3805 121.395 59.8485 120.862 60.1145 121.129V121.129ZM50.5387 121.395C50.2727 121.395 49.7407 121.395 49.7407 121.927C50.0067 121.927 50.5387 121.927 50.5387 121.395ZM191.249 120.064C193.377 118.466 196.835 117.668 197.633 115.006C194.973 115.804 191.249 117.934 191.249 120.064ZM56.1246 122.726C56.6566 122.992 56.1246 122.726 56.1246 122.726V122.726ZM40.697 128.05C42.8249 126.187 45.7508 125.122 48.4108 123.791C45.4848 124.589 40.697 125.92 40.697 128.05ZM29.2593 146.951C32.4512 145.887 32.4512 141.893 35.3771 140.562C34.3131 142.426 33.2492 144.289 32.1852 145.887C35.1111 145.354 34.8451 141.893 36.7071 140.562C36.4411 142.16 36.1751 144.023 35.3771 145.088C37.771 145.088 37.2391 142.692 38.835 142.16C38.835 142.692 38.835 143.491 38.835 144.023C44.1549 142.16 47.8788 139.497 52.1347 137.368C52.1347 136.303 51.3367 136.569 52.1347 135.77C55.8586 132.31 59.0505 128.583 64.1044 125.92C61.1785 125.388 57.4545 128.316 54.7946 130.446C52.4007 132.31 50.5387 135.238 48.4108 135.504C52.1347 131.511 56.6566 128.05 61.4444 124.856C40.431 122.193 32.7172 139.231 23.4074 149.88C25.0034 149.88 26.3333 149.347 26.8653 148.016C25.8013 148.016 26.0673 149.614 25.2694 148.016C28.7273 145.088 31.6532 139.764 34.8451 137.9C32.9832 141.361 28.9933 143.757 29.2593 146.951ZM75.5421 123.791C76.6061 126.187 77.67 124.856 75.5421 123.791V123.791ZM193.909 120.862C196.037 119.797 198.431 118.999 199.761 117.401C197.633 118.466 194.707 118.733 193.909 120.862ZM193.111 129.381C197.899 125.654 203.219 122.193 206.943 117.135C202.421 120.862 196.569 125.92 193.111 129.381ZM104.801 138.965C94.4276 136.569 84.8519 130.446 77.404 125.92C85.3838 131.511 94.4276 137.9 104.801 138.965ZM186.195 124.589C188.323 122.992 191.781 122.726 192.845 120.33C189.387 120.064 186.727 122.726 186.195 124.589ZM196.037 124.589C196.835 122.992 200.293 121.661 199.761 120.064C197.101 121.129 193.909 124.057 193.377 125.654C194.973 124.856 196.303 122.46 196.037 124.589ZM67.5623 127.784C68.3603 127.784 68.6263 127.518 68.6263 126.985C68.0943 126.985 67.2963 126.985 67.5623 127.784ZM187.259 127.784C190.717 126.985 194.175 123.791 194.973 121.927C191.781 123.258 189.121 125.122 187.259 127.784ZM59.0505 132.576C63.5724 131.777 68.0943 130.979 71.5522 129.115C66.7643 128.583 61.7104 129.115 59.0505 132.576ZM35.1111 131.511C35.3771 131.777 35.1111 131.245 35.1111 131.511V131.511ZM33.2492 133.108C35.6431 132.576 34.0471 131.245 33.2492 133.108V133.108ZM68.8923 130.979C66.2323 133.108 62.5084 133.374 58.2525 133.641C49.7407 143.491 31.3872 150.146 20.2155 152.808C23.9394 153.074 27.6633 154.406 31.3872 154.672C38.037 154.938 48.4108 154.938 52.4007 153.873C61.1785 151.743 67.5623 144.023 70.7542 137.9C69.4242 138.965 65.9663 140.03 64.3704 139.764C66.7643 137.634 72.0842 137.9 72.8822 134.173C67.8283 134.439 60.3805 137.101 55.5926 136.569C60.9125 134.439 69.1582 134.706 73.4141 132.043C73.1481 130.18 70.7542 130.979 68.8923 130.979ZM198.697 128.05C199.229 126.719 202.421 125.92 201.623 124.589C201.091 125.654 198.165 126.985 198.697 128.05ZM24.2054 142.692C27.3973 140.03 31.3872 136.569 32.4512 133.374C30.0572 136.835 25.5354 139.764 24.2054 142.692ZM75.8081 132.31C75.2761 135.77 76.0741 130.979 75.8081 132.31V132.31ZM164.916 139.497C177.684 137.9 187.525 133.641 193.643 126.187C189.121 127.518 187.259 130.979 183.269 132.576C183.269 131.777 185.397 130.979 184.333 130.446C179.279 134.706 171.034 137.634 164.916 139.497ZM83.5219 132.576C84.0539 134.173 83.7879 130.979 83.5219 132.576V132.576ZM116.505 147.218C118.101 147.484 116.505 145.354 118.367 145.887C127.145 146.153 133.795 147.484 142.306 147.484C135.125 145.354 127.411 145.088 119.431 144.556C114.643 144.289 109.323 142.16 104.003 140.829C95.7576 138.965 89.6397 135.77 84.0539 132.576C93.0976 140.562 104.003 143.757 116.505 147.218ZM53.7306 135.238C52.6667 136.569 54.7946 134.173 53.7306 135.238V135.238ZM197.633 128.316C197.899 128.583 197.367 128.316 197.633 128.316V128.316ZM185.663 130.712C186.195 129.914 187.259 129.914 187.525 129.115C186.727 128.849 184.865 130.18 185.663 130.712ZM196.303 129.115C196.569 129.381 196.303 129.115 196.303 129.115V129.115ZM184.067 136.303C188.589 134.972 193.377 132.31 195.239 129.647C191.781 132.043 187.259 133.641 184.067 136.303ZM180.875 132.31C180.609 131.777 182.471 131.245 181.141 130.979C181.407 131.511 179.545 132.043 180.875 132.31ZM200.027 130.712C200.293 130.979 199.761 130.446 200.027 130.712V130.712ZM199.229 130.979C199.495 131.245 198.963 130.979 199.229 130.979V130.979ZM202.421 130.979C202.687 131.245 202.155 130.712 202.421 130.979V130.979ZM200.559 132.31C201.623 132.31 201.357 131.245 202.155 130.979C201.091 130.979 200.825 131.511 200.559 132.31ZM72.6162 138.699C70.7542 141.893 73.6801 136.835 72.6162 138.699V138.699ZM199.229 133.108C199.761 133.374 199.229 132.842 199.229 133.108V133.108ZM196.569 133.907C192.313 136.835 197.101 135.77 198.431 133.108C198.165 133.907 197.101 133.641 196.569 133.907ZM23.1414 143.224C23.4074 143.491 22.8754 142.958 23.1414 143.224V143.224ZM25.5354 144.822C25.2694 144.023 27.3973 143.491 26.3333 143.224C26.0673 143.491 24.4714 144.556 25.5354 144.822ZM193.377 134.706C193.111 134.706 192.579 134.706 192.579 135.238C193.111 134.972 193.377 134.972 193.377 134.706ZM105.599 139.764C105.865 140.03 105.599 139.764 105.599 139.764V139.764ZM192.047 135.77C192.313 136.037 191.781 135.77 192.047 135.77V135.77ZM183.269 136.569C183.535 136.835 183.003 136.569 183.269 136.569V136.569ZM190.717 136.303C189.387 137.102 192.579 134.972 190.717 136.303V136.303ZM67.0303 148.283C69.6902 147.218 73.9461 145.354 73.1481 142.426C71.8182 144.556 67.8283 146.419 67.0303 148.283ZM121.027 142.692C117.835 140.829 112.781 140.562 109.323 140.829C112.515 141.893 117.835 142.958 121.027 142.692ZM179.279 137.634C180.343 137.634 181.407 137.368 181.673 136.835C180.609 136.835 179.279 136.569 179.279 137.634ZM188.057 136.835C188.323 137.102 187.791 136.569 188.057 136.835V136.835ZM179.013 137.634C178.747 137.634 178.215 137.634 178.215 138.166C178.481 138.166 179.013 138.166 179.013 137.634ZM183.801 138.166C184.599 138.965 185.929 137.9 186.461 137.101C185.397 137.9 184.067 137.9 183.801 138.166ZM189.653 137.101C189.387 137.101 188.855 137.102 188.855 137.634C189.121 137.368 189.653 137.634 189.653 137.101ZM177.417 138.699C177.683 138.699 177.152 138.433 177.417 138.699V138.699ZM176.088 138.965C176.354 139.231 176.088 138.965 176.088 138.965V138.965ZM187.791 138.433C188.057 138.699 187.525 138.166 187.791 138.433V138.433ZM145.764 143.491C155.34 143.757 167.842 143.491 173.96 139.231C165.98 141.095 154.276 141.627 145.764 143.491ZM175.024 139.231C174.758 139.231 174.226 139.231 174.226 139.764C174.492 139.497 175.024 139.497 175.024 139.231ZM26.3333 147.75C26.5993 148.016 26.3333 147.75 26.3333 147.75V147.75ZM31.1212 147.484C29.2593 148.815 32.7172 146.685 31.1212 147.484V147.484ZM27.6633 149.081C27.6633 148.283 29.7912 149.081 29.5253 147.75C28.4613 147.484 26.3333 148.283 27.6633 149.081ZM177.949 140.562C177.152 140.829 175.556 140.296 175.556 141.095C176.088 141.627 177.418 141.095 177.949 140.562ZM179.013 140.829C179.279 141.095 178.747 140.829 179.013 140.829V140.829ZM126.613 144.023C129.273 145.088 135.391 145.62 140.178 145.354C139.38 143.491 141.508 144.556 141.774 143.757C136.189 143.224 130.603 143.224 126.613 144.023ZM142.04 144.023C142.306 144.289 142.04 143.757 142.04 144.023V144.023ZM19.9495 150.679C20.2155 150.945 19.6835 150.412 19.9495 150.679V150.679ZM143.104 145.62C144.434 145.62 145.764 145.354 147.094 145.354C149.488 145.354 148.424 144.556 146.562 145.088C145.764 144.023 143.104 144.822 141.774 145.354C142.306 145.088 142.838 145.088 143.104 145.62ZM152.68 145.088C152.946 145.088 153.212 145.088 153.478 145.088C153.478 144.822 153.478 144.556 153.478 144.289C153.212 144.289 152.946 144.289 152.68 144.289C152.414 144.556 152.68 144.822 152.68 145.088ZM156.138 144.023C155.606 144.289 154.01 143.757 154.276 144.556C154.808 144.289 156.138 144.822 156.138 144.023ZM156.404 144.556C156.67 144.556 156.404 144.289 156.404 144.556V144.556ZM155.34 146.153C159.862 145.354 154.276 144.822 151.882 146.419C153.744 146.153 154.276 146.153 155.34 146.153ZM128.741 148.549C125.815 148.283 121.825 146.951 119.165 147.75C122.623 148.549 127.411 149.347 128.741 148.549ZM151.084 146.419C151.35 146.419 150.818 146.153 151.084 146.419V146.419ZM8.77778 153.873C14.6296 155.737 28.1953 158.931 35.1111 156.801C26.5993 156.003 17.0236 152.276 8.77778 153.873ZM109.323 149.614C108.791 149.347 106.929 148.815 106.929 149.347C107.727 149.347 109.057 150.679 109.323 149.614ZM153.212 147.75C153.478 148.016 152.946 147.75 153.212 147.75V147.75ZM163.852 146.951C163.586 146.951 163.054 146.951 163.054 147.484C163.32 147.218 163.852 147.218 163.852 146.951ZM174.226 146.685C174.758 148.016 175.024 145.088 174.226 146.685V146.685ZM116.505 150.412C116.771 150.679 116.505 150.412 116.505 150.412V150.412ZM117.835 150.412C128.475 154.139 147.094 152.808 161.724 150.146C147.892 151.743 130.603 150.412 117.835 150.412ZM161.192 149.081C162.256 149.347 162.788 149.347 163.586 148.549C163.054 148.016 161.724 148.283 161.192 149.081ZM156.404 149.614C156.67 149.88 156.138 149.347 156.404 149.614V149.614ZM158 149.614C158.266 149.88 157.734 149.347 158 149.614V149.614ZM159.862 149.347C160.128 149.614 159.862 149.347 159.862 149.347V149.347ZM166.778 150.679C167.576 150.412 168.64 150.412 169.172 149.88C168.108 149.88 166.778 149.614 166.778 150.679ZM166.246 150.412C163.852 149.88 165.448 151.477 166.246 150.412V150.412ZM151.882 153.873C154.808 153.341 158.266 153.607 160.128 152.276C156.936 152.808 154.01 152.01 151.882 153.873ZM163.32 152.01C160.66 151.743 162.522 153.341 163.32 152.01V152.01ZM144.7 153.873C144.966 154.139 144.434 153.607 144.7 153.873V153.873ZM148.69 153.074C148.424 153.074 147.892 153.074 147.892 153.607C148.158 153.607 148.69 153.607 148.69 153.074ZM149.754 153.873C152.414 153.074 148.69 152.808 149.754 153.873V153.873Z" fill="#6A5048"/>
<path fill-rule="evenodd" clip-rule="evenodd" d="M124.219 42.3286C125.017 42.5949 125.549 40.9976 127.411 40.9976C125.017 44.7246 121.559 47.3867 117.835 49.7827C118.899 46.5881 123.953 45.257 124.219 42.3286Z" fill="#6A5048"/>
<path fill-rule="evenodd" clip-rule="evenodd" d="M147.626 48.4517C147.892 50.5814 144.434 52.4449 143.105 54.5746C142.839 52.4449 146.828 50.8476 147.626 48.4517Z" fill="#6A5048"/>
</g>
<defs>
<clipPath id="clip0_26_10">
<rect width="237" height="197" fill="white"/>
</clipPath>
</defs>
</svg>
